<svg xmlns="http://www.w3.org/2000/svg" viewBox="0 0 480 240" role="img" aria-label="Autonomous SRE dashboard">
  <defs>
    <linearGradient id="bg" x1="0" x2="1" y1="0" y2="1">
      <stop offset="0%" stop-color="#0f172a"/>
      <stop offset="100%" stop-color="#1e1b4b"/>
    </linearGradient>
    <linearGradient id="accent" x1="0" x2="1" y1="0" y2="0">
      <stop offset="0%" stop-color="#38bdf8"/>
      <stop offset="100%" stop-color="#22d3ee"/>
    </linearGradient>
    <linearGradient id="pulse" x1="0" x2="0" y1="0" y2="1">
      <stop offset="0%" stop-color="#2dd4bf" stop-opacity="0.8"/>
      <stop offset="100%" stop-color="#2563eb" stop-opacity="0.2"/>
    </linearGradient>
  </defs>
  <rect width="480" height="240" rx="24" fill="url(#bg)"/>
  <rect x="24" y="24" width="432" height="192" rx="20" fill="#111827" stroke="#334155"/>
  <rect x="48" y="56" width="168" height="60" rx="12" fill="#0f172a" stroke="#38bdf8" stroke-opacity="0.4"/>
  <rect x="240" y="56" width="144" height="60" rx="12" fill="#0f172a" stroke="#22d3ee" stroke-opacity="0.4"/>
  <rect x="48" y="136" width="336" height="48" rx="12" fill="#0f172a" stroke="#4c1d95" stroke-opacity="0.4"/>
  <path d="M68 164C96 140 128 172 156 156C184 140 214 166 240 150C266 134 296 170 324 156C352 142 372 156 388 148" fill="none" stroke="url(#accent)" stroke-width="4" stroke-linecap="round" stroke-linejoin="round"/>
  <g fill="#38bdf8">
    <circle cx="96" cy="86" r="6" fill="#22d3ee"/>
    <rect x="112" y="78" width="72" height="8" rx="4"/>
    <rect x="112" y="92" width="58" height="6" rx="3" opacity="0.6"/>
    <circle cx="264" cy="86" r="6"/>
    <rect x="280" y="78" width="80" height="8" rx="4"/>
    <rect x="280" y="92" width="62" height="6" rx="3" opacity="0.6"/>
  </g>
  <g>
    <rect x="360" y="40" width="48" height="12" rx="6" fill="#0f172a" stroke="#38bdf8" stroke-width="2"/>
    <circle cx="384" cy="46" r="3" fill="#38bdf8"/>
    <circle cx="396" cy="46" r="3" fill="#2dd4bf"/>
    <circle cx="408" cy="46" r="3" fill="#f472b6"/>
  </g>
  <g opacity="0.7">
    <rect x="192" y="40" width="120" height="12" rx="6" fill="#0f172a"/>
    <rect x="204" y="40" width="72" height="12" rx="6" fill="url(#pulse)"/>
  </g>
</svg>
